# File created by Blade
# Date/Time:  Tue Sep 30 19:31:45 2014
#---------------------------------------------------------
:version 1.10
:name HOM
:units
  mass 1.0
  length 1.000000
  angle deg
:documentation
     Acclaim Skeleton File
:root
   axis xyz
   order TX TY TZ RX RY RZ
   position 0.000000 0.000000 0.000000
   orientation 0 0 0
:bonedata
   begin
      id 1
      name Spine_dum
      direction 0.000000 1.000000 0.000000
      length 3.241213
      axis 0.0 0.0 0.0 xyz
   end
   begin
      id 2
      name LeftUpLeg_dum
      direction 1.000000 0.000000 0.000000
      length 3.434019
      axis 0.0 0.0 0.0 xyz
   end
   begin
      id 3
      name RightUpLeg_dum
      direction -1.000000 0.000000 0.000000
      length 3.434019
      axis 0.0 0.0 0.0 xyz
   end
   begin
      id 4
      name Spine
      direction 0.000000 1.000000 0.000000
      length 0.000000
      axis 0.0 0.0 0.0 xyz
      dof rx ry rz
   end
   begin
      id 5
      name Spine_dum1
      direction 0.000000 1.000000 0.000000
      length 18.382958
      axis 0.0 0.0 0.0 xyz
   end
   begin
      id 6
      name Spine_dum2
      direction 0.000000 1.000000 0.000000
      length 12.828261
      axis 0.0 0.0 0.0 xyz
   end
   begin
      id 7
      name Spine_dum3
      direction 0.000000 1.000000 0.000000
      length 12.828261
      axis 0.0 0.0 0.0 xyz
   end
   begin
      id 8
      name Head
      direction 0.000000 1.000000 0.000000
      length 4.527550
      axis 0.0 0.0 0.0 xyz
      dof rx ry rz
   end
   begin
      id 9
      name LeftShoulder
      direction 1.000000 0.000000 0.000000
      length 7.748055
      axis 0.0 0.0 -90.0 xyz
      dof rx ry rz
   end
   begin
      id 10
      name LeftArm
      direction 1.000000 0.000000 0.000000
      length 10.635614
      axis 0.0 0.0 -90.0 xyz
      dof rx ry rz
   end
   begin
      id 11
      name LeftForeArm
      direction 1.000000 0.000000 0.000000
      length 8.346755
      axis 0.0 0.0 -90.0 xyz
      dof ry rz rx
   end
   begin
      id 12
      name LeftHand
      direction 0.000000 0.000000 0.000000
      length 0.000000
      axis 0.0 0.0 -90.0 xyz
      dof rx ry rz
   end
   begin
      id 13
      name LeftHand_dum1
      direction 0.000000 0.000000 0.000000
      length 0.000000
      axis 0.0 0.0 -90.0 xyz
   end
   begin
      id 14
      name LeftHand_dum2
      direction 1.000000 0.000000 0.000000
      length 3.937000
      axis 0.0 0.0 -90.0 xyz
   end
   begin
      id 15
      name LeftHandThumb1
      direction 0.000000 0.000000 1.000000
      length 3.937000
      axis 0.0 0.0 -90.0 xyz
      dof rx rz ry
   end
   begin
      id 16
      name RightShoulder
      direction -1.000000 0.000000 0.000000
      length 7.748055
      axis 0.0 0.0 90.0 xyz
      dof rx ry rz
   end
   begin
      id 17
      name RightArm
      direction -1.000000 0.000000 0.000000
      length 10.635614
      axis 0.0 0.0 90.0 xyz
      dof rx ry rz
   end
   begin
      id 18
      name RightForeArm
      direction -1.000000 0.000000 0.000000
      length 8.346755
      axis 0.0 0.0 90.0 xyz
      dof ry rz rx
   end
   begin
      id 19
      name RightHand
      direction 0.000000 0.000000 0.000000
      length 0.000000
      axis 0.0 0.0 90.0 xyz
      dof rx ry rz
   end
   begin
      id 20
      name RightHand_dum1
      direction 0.000000 0.000000 0.000000
      length 0.000000
      axis 0.0 0.0 90.0 xyz
   end
   begin
      id 21
      name RightHand_dum2
      direction -1.000000 0.000000 0.000000
      length 3.937000
      axis 0.0 0.0 90.0 xyz
   end
   begin
      id 22
      name RightHandThumb1
      direction 0.000000 0.000000 1.000000
      length 3.937000
      axis 0.0 0.0 90.0 xyz
      dof rx rz ry
   end
   begin
      id 23
      name LeftUpLeg
      direction 0.000000 -1.000000 0.000000
      length 15.713025
      axis 0.0 0.0 0.0 xyz
      dof rx ry rz
   end
   begin
      id 24
      name LeftLeg
      direction 0.000000 -1.000000 0.000000
      length 14.435119
      axis 0.0 0.0 0.0 xyz
      dof rx ry rz
   end
   begin
      id 25
      name LeftFoot
      direction 0.000000 -0.258819 0.965926
      length 4.938895
      axis 15.0 0.0 0.0 xyz
      dof rx ry rz
   end
   begin
      id 26
      name LeftToeBase
      direction 0.000000 0.000000 1.000000
      length 2.952750
      axis 0.0 0.0 0.0 xyz
      dof rx ry rz
   end
   begin
      id 27
      name RightUpLeg
      direction 0.000000 -1.000000 0.000000
      length 15.713025
      axis 0.0 0.0 0.0 xyz
      dof rx ry rz
   end
   begin
      id 28
      name RightLeg
      direction 0.000000 -1.000000 0.000000
      length 14.435119
      axis 0.0 0.0 0.0 xyz
      dof rx ry rz
   end
   begin
      id 29
      name RightFoot
      direction 0.000000 -0.258819 0.965926
      length 4.938895
      axis 15.0 0.0 0.0 xyz
      dof rx ry rz
   end
   begin
      id 30
      name RightToeBase
      direction 0.000000 0.000000 1.000000
      length 2.952750
      axis 0.0 0.0 0.0 xyz
      dof rx ry rz
   end
:hierarchy
   begin
      root Spine_dum LeftUpLeg_dum RightUpLeg_dum
      Spine_dum Spine
      LeftUpLeg_dum LeftUpLeg
      RightUpLeg_dum RightUpLeg
      Spine Spine_dum1 Spine_dum2 Spine_dum3
      Spine_dum1 Head
      Spine_dum2 LeftShoulder
      Spine_dum3 RightShoulder
      LeftShoulder LeftArm
      LeftArm LeftForeArm
      LeftForeArm LeftHand
      LeftHand LeftHand_dum1 LeftHand_dum2
      LeftHand_dum1 LeftHandThumb1
      RightShoulder RightArm
      RightArm RightForeArm
      RightForeArm RightHand
      RightHand RightHand_dum1 RightHand_dum2
      RightHand_dum1 RightHandThumb1
      LeftUpLeg LeftLeg
      LeftLeg LeftFoot
      LeftFoot LeftToeBase
      RightUpLeg RightLeg
      RightLeg RightFoot
      RightFoot RightToeBase
   end

# File created by Blade
# Date/Time:  Mon Sep 22 19:00:17 2014
# Frame Rate: 120.000 fps
#------------------------------------------------------
:FULLY-SPECIFIED
:DEGREES
581
root -0.664416 32.763852 -3.707390 38.763248 23.987954 2.891179
Spine -48.732783 12.682057 -17.490738
Head 2.613536 -24.274148 -7.161751
LeftShoulder -8.514497 42.009895 13.108731
LeftArm 72.308856 34.936471 -47.381959
LeftForeArm 10.058636 0.000000 6.981653
LeftHand -19.060152 -0.000000 -9.938459
LeftHandThumb1 -26.253704 0.000000 33.147579
RightShoulder -9.372964 0.486937 -51.386108
RightArm 102.668204 34.499261 104.062678
RightForeArm 87.605392 -0.000000 35.510616
RightHand 25.926922 -0.000000 -1.085465
RightHandThumb1 -24.326973 -0.000000 -32.862282
LeftUpLeg -36.005977 -7.499986 7.707340
LeftLeg -0.874486 -0.000000 0.000000
LeftFoot 1.181265 -7.355592 -3.872172
LeftToeBase 2.002660 -0.000000 -0.000000
RightUpLeg -30.357429 -20.098713 10.797349
RightLeg -3.663760 -0.000000 0.000000
RightFoot -10.485876 -14.667643 20.267214
RightToeBase 14.894407 -0.000000 -0.000000
582
root -0.666220 32.764211 -3.708246 38.745569 23.984719 2.887024
Spine -48.725610 12.689193 -17.476387
Head 2.580317 -24.216999 -7.197850
LeftShoulder -8.532836 42.003914 13.070668
LeftArm 72.327475 34.885087 -47.381421
LeftForeArm 9.928239 -0.000000 7.001220
LeftHand -19.032379 -0.000000 -9.882025
LeftHandThumb1 -26.253704 0.000000 33.147579
RightShoulder -9.335295 0.432984 -51.391687
RightArm 102.691544 34.447504 104.157605
RightForeArm 87.949597 -0.000000 35.627032
RightHand 26.151732 -0.000000 -1.386443
RightHandThumb1 -24.326973 -0.000000 -32.862282
LeftUpLeg -35.998347 -7.517662 7.723004
LeftLeg -0.862878 -0.000000 0.000000
LeftFoot 1.167078 -7.317922 -3.886489
LeftToeBase 1.988706 -0.000000 -0.000000
RightUpLeg -30.347902 -20.093564 10.795211
RightLeg -3.652382 -0.000000 0.000000
RightFoot -10.471547 -14.696112 20.175294
RightToeBase 14.876023 -0.000000 -0.000000
583
root -0.667923 32.764352 -3.709216 38.728456 23.981175 2.881901
Spine -48.719887 12.691185 -17.466526
Head 2.545128 -24.174000 -7.201075
LeftShoulder -8.545498 41.990853 13.063285
LeftArm 72.378314 34.891592 -47.348032
LeftForeArm 10.003819 0.000000 7.034283
LeftHand -19.274369 -0.000000 -9.665958
LeftHandThumb1 -26.253704 0.000000 33.147579
RightShoulder -9.296570 0.384934 -51.377232
RightArm 102.734554 34.395280 104.292011
RightForeArm 88.084959 -0.000000 35.798657
RightHand 26.175076 -0.000000 -1.494657
RightHandThumb1 -24.326973 -0.000000 -32.862282
LeftUpLeg -35.990944 -7.522314 7.730169
LeftLeg -0.851626 -0.000000 0.000000
LeftFoot 1.162503 -7.307681 -3.868969
LeftToeBase 1.987867 -0.000000 -0.000000
RightUpLeg -30.338825 -20.105435 10.802565
RightLeg -3.648328 -0.000000 0.000000
RightFoot -10.465798 -14.647113 20.237435
RightToeBase 14.832924 -0.000000 -0.000000
584
root -0.670583 32.764379 -3.709984 38.711352 23.983816 2.879705
Spine -48.702583 12.691525 -17.455623
Head 2.500705 -24.116796 -7.216883
LeftShoulder -8.563905 41.979210 13.035836
LeftArm 72.418006 34.863905 -47.324884
LeftForeArm 10.029442 -0.000000 7.047306
LeftHand -19.298133 -0.000000 -9.619586
LeftHandThumb1 -26.253704 0.000000 33.147579
RightShoulder -9.268874 0.349282 -51.368587
RightArm 102.776797 34.351387 104.430997
RightForeArm 88.075580 -0.000000 35.979057
RightHand 26.161093 -0.000000 -1.480208
RightHandThumb1 -24.326973 -0.000000 -32.862282
LeftUpLeg -35.980695 -7.540776 7.748677
LeftLeg -0.849656 -0.000000 0.000000
LeftFoot 1.166861 -7.288601 -3.877018
LeftToeBase 1.962586 -0.000000 -0.000000
RightUpLeg -30.335957 -20.130031 10.818396
RightLeg -3.636321 -0.000000 0.000000
RightFoot -10.455762 -14.628436 20.230634
RightToeBase 14.814090 -0.000000 -0.000000
585
root -0.672976 32.763284 -3.710015 38.694102 24.002465 2.891713
Spine -48.677475 12.682789 -17.462132
Head 2.454005 -24.084113 -7.203415
LeftShoulder -8.566651 41.956033 13.031630
LeftArm 72.451106 34.836394 -47.316609
LeftForeArm 9.952785 -0.000000 7.059738
LeftHand -19.303189 -0.000000 -9.642055
LeftHandThumb1 -26.253704 0.000000 33.147579
RightShoulder -9.255301 0.334855 -51.348990
RightArm 102.802723 34.328973 104.542676
RightForeArm 87.921205 -0.000000 36.133156
RightHand 26.131214 -0.000000 -1.441724
RightHandThumb1 -24.326973 -0.000000 -32.862282
LeftUpLeg -35.969463 -7.564611 7.755655
LeftLeg -0.840824 -0.000000 0.000000
LeftFoot 1.157504 -7.282926 -3.891886
LeftToeBase 2.008665 -0.000000 -0.000000
RightUpLeg -30.316397 -20.172609 10.830081
RightLeg -3.644207 -0.000000 0.000000
RightFoot -10.469996 -14.605106 20.198421
RightToeBase 14.856835 -0.000000 -0.000000
586
root -0.674371 32.762752 -3.710989 38.680522 23.999618 2.885171
Spine -48.668863 12.695162 -17.461724
Head 2.413309 -24.050541 -7.217762
LeftShoulder -8.578343 41.950901 13.014443
LeftArm 72.475501 34.800906 -47.329132
LeftForeArm 9.971747 -0.000000 7.072596
LeftHand -19.265418 -0.000000 -9.638816
LeftHandThumb1 -26.253704 0.000000 33.147579
RightShoulder -9.240335 0.364230 -51.334773
RightArm 102.791295 34.317763 104.614000
RightForeArm 87.620739 -0.000000 36.286391
RightHand 25.932781 0.000000 -1.421852
RightHandThumb1 -24.326973 -0.000000 -32.862282
LeftUpLeg -35.965260 -7.540585 7.745702
LeftLeg -0.824808 -0.000000 0.000000
LeftFoot 1.145467 -7.307015 -3.886076
LeftToeBase 1.977358 -0.000000 -0.000000
RightUpLeg -30.315329 -20.199938 10.852164
RightLeg -3.643064 -0.000000 0.000000
RightFoot -10.467146 -14.560012 20.231810
RightToeBase 14.888990 -0.000000 -0.000000
587
root -0.676087 32.762494 -3.712145 38.678040 23.997283 2.885048
Spine -48.666374 12.696496 -17.460935
Head 2.372733 -23.988682 -7.215913
LeftShoulder -8.575313 41.945107 13.011792
LeftArm 72.486916 34.774665 -47.346315
LeftForeArm 9.989873 0.000000 7.089541
LeftHand -19.241222 0.000000 -9.631520
LeftHandThumb1 -26.253704 0.000000 33.147579
RightShoulder -9.229644 0.359115 -51.319652
RightArm 102.792153 34.326686 104.617114
RightForeArm 87.364991 -0.000000 36.403833
RightHand 26.166341 -0.000000 -1.480125
RightHandThumb1 -24.326973 -0.000000 -32.862282
LeftUpLeg -35.964164 -7.547181 7.751642
LeftLeg -0.828220 -0.000000 0.000000
LeftFoot 1.140081 -7.295021 -3.867805
LeftToeBase 2.007182 -0.000000 -0.000000
RightUpLeg -30.316762 -20.204509 10.859221
RightLeg -3.641818 -0.000000 0.000000
RightFoot -10.458431 -14.567575 20.165910
RightToeBase 14.856701 -0.000000 -0.000000
588
root -0.677392 32.761847 -3.712666 38.671701 23.987834 2.881286
Spine -48.662035 12.699388 -17.458362
Head 2.336475 -23.925066 -7.221786
LeftShoulder -8.581772 41.961153 13.004246
LeftArm 72.492336 34.725482 -47.411652
LeftForeArm 10.037986 -0.000000 7.082206
LeftHand -19.203771 -0.000000 -9.604405
LeftHandThumb1 -26.253704 0.000000 33.147579
RightShoulder -9.220479 0.392380 -51.302349
RightArm 102.765157 34.345633 104.589154
RightForeArm 87.005116 -0.000000 36.531223
RightHand 26.099798 0.000000 -1.463106
RightHandThumb1 -24.326973 -0.000000 -32.862282
LeftUpLeg -35.958757 -7.546372 7.755756
LeftLeg -0.827248 -0.000000 0.000000
LeftFoot 1.130011 -7.278106 -3.882944
LeftToeBase 1.989609 -0.000000 -0.000000
RightUpLeg -30.314570 -20.224036 10.876381
RightLeg -3.654619 -0.000000 0.000000
RightFoot -10.425904 -14.544278 20.133223
RightToeBase 14.811586 -0.000000 -0.000000
589
root -0.679462 32.761057 -3.713512 38.665130 23.980085 2.877179
Spine -48.654275 12.699803 -17.452279
Head 2.302569 -23.864275 -7.197974
LeftShoulder -8.594715 41.972408 12.996306
LeftArm 72.495308 34.687359 -47.444176
LeftForeArm 10.022500 -0.000000 7.120284
LeftHand -19.077335 -0.000000 -9.871996
LeftHandThumb1 -26.253704 0.000000 33.147579
RightShoulder -9.232333 0.428369 -51.289229
RightArm 102.716159 34.375484 104.474224
RightForeArm 86.837727 0.000000 36.564007
RightHand 25.950826 -0.000000 -1.496396
RightHandThumb1 -24.326973 -0.000000 -32.862282
LeftUpLeg -35.953485 -7.530289 7.752610
LeftLeg -0.828442 -0.000000 0.000000
LeftFoot 1.130911 -7.297690 -3.892930
LeftToeBase 1.928977 -0.000000 -0.000000
RightUpLeg -30.317295 -20.224418 10.880223
RightLeg -3.646735 -0.000000 0.000000
RightFoot -10.429900 -14.515147 20.164569
RightToeBase 14.800427 -0.000000 -0.000000
